<?xml version="1.0" encoding="UTF-8"?>
<svg id="Ebene_1" data-name="Ebene 1" xmlns="http://www.w3.org/2000/svg" viewBox="0 0 68.03 68.03">
  <path fill="#7CA5B8" d="m67.96,34.68c-.32.57-.57,1.2-.98,1.69-.66.79-1.6,1.04-2.62,1.04-1.94,0-3.89,0-5.83,0-12.99,0-25.98,0-38.97,0-1.58,0-2.81-.56-3.48-2.05-.93-2.07.43-4.43,2.68-4.69.37-.04.75-.04,1.12-.04,14.6,0,29.21.02,43.81-.02,2.11,0,3.59.67,4.27,2.75v1.33Z"/>
  <path fill="#7CA5B8" d="m67.96,13.46c-.09.2-.17.39-.26.59-.59,1.28-1.57,1.99-2.98,2.07-.18.01-.35,0-.53,0-14.87,0-29.74,0-44.61,0-.94,0-1.8-.15-2.54-.76-1.08-.88-1.51-2.32-1.09-3.64.43-1.36,1.61-2.28,3.05-2.37.29-.02.57-.01.86-.01,14.65,0,29.3,0,43.94,0,2.42,0,3.25.55,4.16,2.78v1.33Z"/>
  <path fill="#7CA5B8" d="m67.96,55.9c-.45,1.43-1.3,2.44-2.84,2.72-.28.05-.57.06-.86.06-14.94,0-29.87,0-44.81,0-2.58,0-4.26-2.16-3.49-4.46.45-1.35,1.66-2.25,3.09-2.3.29-.01.57,0,.86,0,14.58,0,29.16.02,43.74-.03,2.11,0,3.59.65,4.31,2.7v1.33Z"/>
  <path fill="#7CA5B8" d="m.07,12.96c.02-2.49,2.11-4.55,4.59-4.51,2.51.04,4.55,2.12,4.51,4.6-.04,2.52-2.1,4.53-4.6,4.51-2.49-.02-4.52-2.09-4.5-4.6Z"/>
  <path fill="#7CA5B8" d="m.07,54.99c.01-2.5,2.08-4.53,4.58-4.52,2.49.02,4.55,2.1,4.52,4.59-.03,2.51-2.1,4.55-4.59,4.52-2.5-.03-4.53-2.09-4.51-4.59Z"/>
  <path fill="#7CA5B8" d="m4.57,38.55c-2.52-.02-4.52-2.06-4.5-4.58.02-2.51,2.06-4.5,4.59-4.49,2.51.02,4.55,2.09,4.51,4.58-.04,2.52-2.08,4.51-4.6,4.49Z"/>
</svg>