<?xml version="1.0" encoding="UTF-8"?>
<svg id="Ebene_2" data-name="Ebene 2" xmlns="http://www.w3.org/2000/svg" viewBox="0 0 623.62 141.73">
  <defs>
    <style>
      .cls-1 {
        fill: #7CA5B8;
      }
    </style>
  </defs>
  <g>
    <path class="cls-1" d="m130.19,42.21v6c-.06.28-.13.56-.17.85-.26,1.83-.4,3.68-.79,5.48-2.05,9.49-6.66,17.55-13.84,24.09-6.42,5.85-13.92,9.57-22.49,11.05-1.61.28-3.24.47-4.86.7h-6c-1.07-.13-2.15-.24-3.22-.4-8.72-1.28-16.58-4.61-23.13-10.51-13.6-12.24-18.5-27.45-14.39-45.27,2.52-10.93,8.75-19.61,17.94-26.01C69.88.78,81.67-1.56,94.34,1.01c9.55,1.94,17.61,6.68,24.15,13.9,5.81,6.41,9.52,13.9,10.99,22.45.28,1.61.47,3.24.7,4.85Zm-9.03-18.65C113.1,9.97,96.81.55,78.13,3.6c-16.97,2.77-29.24,15.38-33.23,28.93.88.33,1.78.59,2.62.99,2.1,1.02,3.65,2.7,4.86,4.62,3.11,4.93,6.39,9.71,10.33,14.02,1.57,1.72,2.57,3.85,3.09,6.16.4,1.77.68,3.57,1.09,5.34.29,1.28.65,2.55,1.07,3.79.19.55.61,1.02,1.35.86,1.65-.36,3.31-.69,4.96-1.07,1.33-.31,1.85-1.21,1.74-2.58-.06-.74.02-1.53.2-2.26.89-3.43,1.93-6.82,2.74-10.27.63-2.71.97-5.46,2.52-7.89.72-1.14,1.4-2.26,2.58-2.93,1.55-.88,3.16-1.66,4.76-2.46.58-.3,1.19-.55,1.78-.82-.83-.28-1.64-.33-2.42-.53-4.97-1.3-8.79-4.18-11.19-8.7-1.57-2.96-1.22-6,.63-8.95,1.67,1.19,3.46,1.03,5.27.62,1.47-.34,2.64.19,3.44,1.37.78,1.13,1.45,2.35,2.08,3.57.56,1.08,1.34,1.87,2.5,2.19,1.64.44,3.29.83,4.95,1.18.21.04.66-.26.74-.5.28-.8.5-1.63.63-2.46.24-1.42.37-2.85.6-4.27.09-.59.44-1.01,1.11-1.07.67-.05,1.22.12,1.56.74.11.2.21.43.25.66.12.85.61,1.06,1.41.97,1.05-.12,2.11-.18,3.17-.16,2.49.05,3.59.81,4.13,3.23.34,1.52.29,3.14.42,4.71.03.37-.01.8.14,1.11.71,1.44,1.41,2.9,2.25,4.27.97,1.59,1.19,1.57,2.82.74.5-.26.68-.54.54-1.1-.69-2.65-.54-5.36-.6-8.06-.03-1.46.56-2.35,1.86-2.85.52-.2,1.04-.39,1.58-.53.87-.23,1.75-.43,2.71-.66Z"/>
    <g>
      <path class="cls-1" d="m59.28,104.11c.11,4.42-1.58,8.45-2.75,12.56-2.12,7.47-4.37,14.91-6.57,22.35-.08.26-.16.53-.26.78-.58,1.47-1.82,2.2-3.09,1.82-1.37-.41-2.12-1.74-1.68-3.29,1.61-5.61,3.28-11.21,4.9-16.81,1.29-4.44,2.61-8.88,3.8-13.35,2.19-8.2-1.83-16.7-9.13-20.88-2.3-1.32-4.54-2.73-6.82-4.07-3.84-2.26-6.62-5.42-8.4-9.51-2.15-4.95-4.34-9.9-6.61-14.8-.38-.82-1.14-1.75-1.94-2.02-.7-.24-1.85.14-2.52.63-.99.72-.92,1.89-.52,3.02,1.75,4.87,3.47,9.76,5.21,14.64,1.69,4.72,3.39,9.44,5.07,14.16.22.62.39,1.27.44,1.92.1,1.2-.5,2.22-1.63,2.33-.89.09-1.96-.34-2.74-.85-.5-.33-.67-1.22-.91-1.89-3.29-9.18-6.56-18.37-9.85-27.55-2.04-5.69-.62-8.97,4.95-11.5.37-.17.71-.67.84-1.09,2.83-9.04,5.63-18.09,8.46-27.14.41-1.32.16-2.34-1.08-2.91-1.36-.63-2.36,0-3.01,1.22-2.67,4.95-5.32,9.92-7.98,14.88-1.72,3.21-3.25,6.54-5.2,9.6-2.76,4.33-3.5,9.06-3.79,14.03-.35,6.01-.87,12.01-1.47,18-.27,2.69.27,5.02,1.9,7.14.94,1.23,1.94,2.42,2.8,3.7.81,1.21.56,2.62-.5,3.41-1.16.86-2.41.76-3.28-.27-2.6-3.07-5.52-6.08-5.86-10.33-.23-2.89.07-5.84.29-8.75.46-6.17.91-12.34,1.6-18.48.26-2.31.8-4.74,1.85-6.79,4.96-9.61,10.14-19.1,15.27-28.62,1.54-2.86,3.98-4.32,7.21-3.97,3.05.33,5.38,2,6.09,5.04.38,1.62.24,3.55-.23,5.16-2.51,8.5-5.19,16.96-7.87,25.41-.35,1.11-.21,1.67.67,2.49,1.01.95,1.83,2.21,2.42,3.49,2.27,4.9,4.45,9.85,6.61,14.8,1.33,3.05,3.39,5.38,6.26,7.05,2.72,1.58,5.46,3.14,8.07,4.89,7.22,4.84,10.82,11.69,10.97,20.36Z"/>
      <path class="cls-1" d="m30.61,118.91c-.32,1.21-.54,2.46-.97,3.64-2.02,5.47-4.1,10.92-6.15,16.38-.14.36-.24.73-.41,1.08-.67,1.43-1.94,2.04-3.22,1.55-1.36-.52-1.99-1.87-1.44-3.39,1.27-3.52,2.61-7.02,3.91-10.52.87-2.32,1.65-4.68,2.63-6.95.7-1.63.45-2.91-.61-4.27-3.84-4.91-7.62-9.87-11.41-14.83-.43-.56-1.06-1.29-.97-1.83.15-.92.58-2.08,1.29-2.57,1.19-.83,2.43-.28,3.31.87,2.53,3.28,5.05,6.56,7.58,9.84,1.41,1.84,2.84,3.66,4.24,5.51,1.22,1.61,2.17,3.33,2.23,5.5Z"/>
    </g>
    <g>
      <path class="cls-1" d="m110.8,104.11c-.11,4.42,1.58,8.45,2.75,12.56,2.12,7.47,4.37,14.91,6.57,22.35.08.26.16.53.26.78.58,1.47,1.82,2.2,3.09,1.82,1.37-.41,2.12-1.74,1.68-3.29-1.61-5.61-3.28-11.21-4.9-16.81-1.29-4.44-2.61-8.88-3.8-13.35-2.19-8.2,1.83-16.7,9.13-20.88,2.3-1.32,4.54-2.73,6.82-4.07,3.84-2.26,6.62-5.42,8.4-9.51,2.15-4.95,4.34-9.9,6.61-14.8.38-.82,1.14-1.75,1.94-2.02.7-.24,1.85.14,2.52.63.99.72.92,1.89.52,3.02-1.75,4.87-3.47,9.76-5.21,14.64-1.69,4.72-3.39,9.44-5.07,14.16-.22.62-.39,1.27-.44,1.92-.1,1.2.5,2.22,1.63,2.33.89.09,1.96-.34,2.74-.85.5-.33.67-1.22.91-1.89,3.29-9.18,6.56-18.37,9.85-27.55,2.04-5.69.62-8.97-4.95-11.5-.37-.17-.71-.67-.84-1.09-2.83-9.04-5.63-18.09-8.46-27.14-.41-1.32-.16-2.34,1.08-2.91,1.36-.63,2.36,0,3.01,1.22,2.67,4.95,5.32,9.92,7.98,14.88,1.72,3.21,3.25,6.54,5.2,9.6,2.76,4.33,3.5,9.06,3.79,14.03.35,6.01.87,12.01,1.47,18,.27,2.69-.27,5.02-1.9,7.14-.94,1.23-1.94,2.42-2.8,3.7-.81,1.21-.56,2.62.5,3.41,1.16.86,2.41.76,3.28-.27,2.6-3.07,5.52-6.08,5.86-10.33.23-2.89-.07-5.84-.29-8.75-.46-6.17-.91-12.34-1.6-18.48-.26-2.31-.8-4.74-1.85-6.79-4.96-9.61-10.14-19.1-15.27-28.62-1.54-2.86-3.98-4.32-7.21-3.97-3.05.33-5.38,2-6.09,5.04-.38,1.62-.24,3.55.23,5.16,2.51,8.5,5.19,16.96,7.87,25.41.35,1.11.21,1.67-.67,2.49-1.01.95-1.83,2.21-2.42,3.49-2.27,4.9-4.45,9.85-6.61,14.8-1.33,3.05-3.39,5.38-6.26,7.05-2.72,1.58-5.46,3.14-8.07,4.89-7.22,4.84-10.82,11.69-10.97,20.36Z"/>
      <path class="cls-1" d="m139.47,118.91c.32,1.21.54,2.46.97,3.64,2.02,5.47,4.1,10.92,6.15,16.38.14.36.24.73.41,1.08.67,1.43,1.94,2.04,3.22,1.55,1.36-.52,1.99-1.87,1.44-3.39-1.27-3.52-2.61-7.02-3.91-10.52-.87-2.32-1.65-4.68-2.63-6.95-.7-1.63-.45-2.91.61-4.27,3.84-4.91,7.62-9.87,11.41-14.83.43-.56,1.06-1.29.97-1.83-.15-.92-.58-2.08-1.29-2.57-1.19-.83-2.43-.28-3.31.87-2.53,3.28-5.05,6.56-7.58,9.84-1.41,1.84-2.84,3.66-4.24,5.51-1.22,1.61-2.17,3.33-2.23,5.5Z"/>
    </g>
  </g>
  <g>
    <path class="cls-1" d="m184.25,28.54c0-15.79,10.45-28.54,28.97-28.54,7.68,0,16.39,3.19,22.64,10.65l-9.74,8.09c-2.69-3.19-7.36-6.38-12.9-6.38-8.23,0-15.12,5.99-15.12,16.18,0,8.71,6.01,15.71,15.12,15.71,5.07,0,9.89-2.64,12.9-6.3l9.74,8.17c-4.83,5.91-12.67,10.57-22.64,10.57-15.51,0-28.97-9.88-28.97-28.15Z"/>
    <path class="cls-1" d="m242.39.78h13.3v43.63h23.59v11.59h-36.89V.78Z"/>
    <path class="cls-1" d="m286.19.78h13.38v55.21h-13.38V.78Z"/>
    <path class="cls-1" d="m367.66.78v55.21h-13.14v-30.49h-.16l-11.4,20.38h-8.47l-11.4-20.3h-.16v30.41h-13.14V.78h13.3l15.6,29.24h.16l15.52-29.24h13.3Z"/>
    <path class="cls-1" d="m409.81,46.12h-19.71l-3.25,9.88h-13.85L393.58.78h12.67l20.74,55.21h-13.85l-3.33-9.88Zm-3.64-11.04l-6.17-18.59h-.16l-6.09,18.59h12.43Z"/>
    <path class="cls-1" d="m437.38,12.36h-14.88V.78h42.91v11.58h-14.88v43.63h-13.14V12.36Z"/>
    <path class="cls-1" d="m471.92.78h36.65v11.58h-23.67v10.58h18.68v11.43h-18.68v10.03h25.33v11.59h-38.31V.78Z"/>
  </g>
  <g>
    <path class="cls-1" d="m184.25,113.46c0-16,10.3-28.42,27.89-28.42,7.9,0,16.58,3.34,22.23,9.86l-9.22,7.76c-2.87-2.79-7.2-5.44-13.09-5.44-7.75,0-14.33,5.98-14.33,16.23,0,8.93,5.58,16.23,14.87,16.23,3.25,0,6.2-.7,9.37-2.41v-6.29h-10.53v-10.94h23.01v24.77c-4.88,3.88-13.32,6.75-21.85,6.75-15.88,0-28.35-10.17-28.35-28.11Z"/>
    <path class="cls-1" d="m242.3,117.96v-32.15h13.09v31.29c0,6.76,3.25,12.42,9.61,12.42,5.65,0,9.84-4.58,9.84-12.42v-31.29h13.01v32.15c0,14.37-8.21,23.77-22.85,23.77-13.55,0-22.7-8.47-22.7-23.77Z"/>
    <path class="cls-1" d="m326.07,131.09h-19.29l-3.18,9.86h-13.55l20.14-55.14h12.39l20.29,55.14h-13.55l-3.25-9.86Zm-3.56-11.03l-6.04-18.56h-.16l-5.96,18.56h12.16Z"/>
    <path class="cls-1" d="m376.61,140.95l-11.31-17.79h-4.49v17.79h-12.78v-55.14h21.46c13.55,0,19.68,8.07,19.68,19.03,0,8.38-3.88,13.9-10.23,16.54v.15l12.86,19.42h-15.19Zm-15.8-29.12h5.96c5.5,0,8.91-2.79,8.91-7.3,0-4.12-2.95-7.3-8.68-7.3h-6.2v14.6Z"/>
    <path class="cls-1" d="m397.71,85.82h19.06c17.43,0,28.51,11.34,28.51,27.64s-10.46,27.49-28.27,27.49h-19.29v-55.14Zm18.44,43.56c9.45,0,15.65-6.99,15.65-15.92s-6.27-16.07-14.72-16.07h-6.58v31.99h5.65Z"/>
    <path class="cls-1" d="m453.2,85.82h13.09v55.14h-13.09v-55.14Z"/>
    <path class="cls-1" d="m507.9,131.09h-19.29l-3.18,9.86h-13.55l20.14-55.14h12.39l20.29,55.14h-13.55l-3.25-9.86Zm-3.56-11.03l-6.04-18.56h-.16l-5.96,18.56h12.16Z"/>
    <path class="cls-1" d="m577.11,85.82v55.14h-13.32l-20.92-33.08h-.08v33.08h-12.94v-55.14h12.94l21.38,33.94v-33.94h12.94Z"/>
    <path class="cls-1" d="m583.26,132.87l7.67-9.47c4.19,4.58,9.14,6.6,12.94,6.6,4.49,0,6.2-2.02,6.2-4.5,0-3.03-1.94-4.35-8.21-6.45-8.37-2.87-16.66-6.83-16.66-17.62,0-9.17,7.98-16.23,17.97-16.39,7.2-.08,13.71,2.64,19.13,7.22l-7.36,9.63c-4.65-3.72-8.21-5.28-11.31-5.28s-5.04,1.63-5.04,4.27c-.08,2.48,1.94,3.72,7.98,6.06,9.68,3.72,17.04,6.28,17.04,17.08,0,12.97-11.23,17.71-20.06,17.71-7.05,0-14.33-2.8-20.29-8.86Z"/>
  </g>
</svg>