<?xml version="1.0" encoding="UTF-8"?>
<svg id="Ebene_1" data-name="Ebene 1" xmlns="http://www.w3.org/2000/svg" viewBox="0 0 68.03 68.03">
  <path fill="#7CA5B8" d="m67.96,34.68c-.42.57-.74,1.2-1.28,1.69-.86.79-2.09,1.04-3.41,1.04-2.53,0-5.06,0-7.6,0-16.92,0-33.84,0-50.75,0-2.06,0-3.66-.56-4.53-2.05-1.21-2.07.56-4.43,3.49-4.69.48-.04.98-.04,1.46-.04,19.02,0,38.04.02,57.06-.02,2.75,0,4.68.67,5.56,2.75v1.33Z"/>
  <path fill="#7CA5B8" d="m67.96,13.46c-.11.2-.23.39-.34.59-.76,1.28-2.04,1.99-3.88,2.07-.23.01-.46,0-.69,0-19.36,0-38.73,0-58.09,0-1.22,0-2.34-.15-3.31-.76-1.41-.88-1.97-2.32-1.42-3.64.56-1.36,2.1-2.28,3.97-2.37.37-.02.75-.01,1.12-.01,19.08,0,38.15,0,57.23,0,3.15,0,4.23.55,5.42,2.78v1.33Z"/>
  <path fill="#7CA5B8" d="m67.96,55.9c-.58,1.43-1.69,2.44-3.7,2.72-.36.05-.74.06-1.12.06-19.45,0-38.9,0-58.35,0-3.35,0-5.55-2.16-4.55-4.46.59-1.35,2.16-2.25,4.02-2.3.37-.01.75,0,1.12,0,18.99,0,37.98.02,56.97-.03,2.75,0,4.67.65,5.61,2.7v1.33Z"/>
</svg>