<?xml version="1.0" encoding="UTF-8"?>
<svg id="Ebene_1" data-name="Ebene 1" xmlns="http://www.w3.org/2000/svg" viewBox="0 0 68.03 68.03">
  <path fill="#7CA5B8" d="m2.78,67.97c-.31-.33-.75-.6-.89-.99-.31-.86.35-1.63,1.35-1.66.97-.03,1.93,0,2.97,0v-.79c0-3.56.07-7.12-.02-10.68-.07-2.64,1.83-4.18,4.06-4.08,1.88.09,3.76.02,5.65.02,2.51,0,3.95,1.43,3.96,3.95.01,3.56,0,7.12,0,10.68,0,.26,0,.53,0,.85h7.39c0-.25,0-.5,0-.76,0-7.32,0-14.63,0-21.95,0-2,1.05-3.41,2.83-3.81.36-.08.75-.09,1.12-.09,1.9,0,3.81,0,5.71,0,2.56,0,4.01,1.44,4.01,3.98,0,7.27,0,14.54,0,21.82v.83h7.41c0-.27,0-.55,0-.83,0-13.64,0-27.28,0-40.91,0-1.63.53-2.92,2.04-3.63.56-.26,1.24-.34,1.86-.36,1.95-.04,3.9-.02,5.85-.01,2.47.01,3.9,1.44,3.91,3.92.01,3.29,0,6.59,0,9.88,0,10.37,0,20.73,0,31.1,0,.28,0,.56,0,.89.88,0,1.67,0,2.47,0,.97,0,1.53.31,1.71.95.19.69-.06,1.17-.91,1.7H2.78Z"/>
  <path fill="#7CA5B8" d="m53.65,2.71c-1.44,0-2.89,0-4.35,0-.28,0-.58-.02-.85-.11-.56-.19-.86-.63-.87-1.21,0-.58.29-1.02.85-1.22.24-.09.52-.11.78-.11,2.48,0,4.96,0,7.44,0,1.25,0,1.72.46,1.73,1.72.01,2.32.03,4.64-.02,6.96,0,.44-.18,1.01-.49,1.29-.28.25-.86.3-1.27.23-.51-.08-.82-.53-.83-1.07-.03-1.21-.03-2.43-.05-3.64,0-.25,0-.51,0-.92-.3.28-.47.43-.64.6-4.35,4.34-8.71,8.69-13.06,13.03-1.02,1.02-1.61,1.02-2.62,0-1.52-1.51-3.03-3.02-4.69-4.68-.19.26-.31.51-.5.69-7.28,7.27-14.56,14.54-21.84,21.8-.17.17-.34.35-.52.51-.6.5-1.37.49-1.86,0-.5-.5-.5-1.25,0-1.86.1-.12.21-.23.32-.33,7.75-7.74,15.5-15.47,23.25-23.21.93-.93,1.57-.93,2.49,0,1.54,1.53,3.07,3.06,4.55,4.54,4.36-4.35,8.69-8.66,13.04-13.01Z"/>
</svg>